<svg width="296" height="100" viewBox="0 0 296 100" fill="none" xmlns="http://www.w3.org/2000/svg">
<path d="M19.1097 0.00268555V37.0392C27.4719 29.9019 35.8467 26.477 43.659 26.477C55.7337 26.477 61.3585 34.2893 61.3585 43.214V86.9628H71.9207V93.1377H45.7715V86.9628H54.2212V44.714C54.2212 36.9017 50.3838 32.9143 42.834 32.9143C35.2842 32.9143 26.2345 37.5767 19.1097 44.164V86.9628H26.647V93.1377H0.185181V86.9628H11.9849V6.17752H0.185181V0.00268555H19.1097Z" fill="black"/>
<path d="M108.707 26.4769C127.082 26.4769 141.081 41.289 141.081 60.7635C141.081 80.238 127.094 95.0501 108.707 95.0501C90.3203 95.0501 76.4706 80.238 76.4706 60.7635C76.4706 41.289 90.3203 26.4769 108.707 26.4769ZM83.7454 60.7635C83.7454 76.8131 94.3077 88.6128 108.707 88.6128C123.107 88.6128 133.807 76.8131 133.807 60.7635C133.807 44.7139 123.519 32.9143 108.57 32.9143C93.6202 32.9143 83.7454 44.9889 83.7454 60.7635Z" fill="black"/>
<path d="M187.155 26.4769C205.53 26.4769 219.529 41.289 219.529 60.7635C219.529 80.238 205.542 95.0501 187.155 95.0501C168.768 95.0501 154.918 80.238 154.918 60.7635C154.918 41.289 168.768 26.4769 187.155 26.4769ZM162.193 60.7635C162.193 76.8131 172.755 88.6128 187.155 88.6128C201.555 88.6128 212.254 76.8131 212.254 60.7635C212.254 44.7139 201.967 32.9143 187.018 32.9143C172.068 32.9143 162.193 44.9889 162.193 60.7635Z" fill="black"/>
<path d="M156.693 93.1377L148.006 100L139.306 93.1377L148.006 86.2754L156.693 93.1377Z" fill="#0072FF"/>
<path d="M212.042 2.80269C209.63 4.65264 207.217 6.51509 204.817 8.36504C194.18 8.80253 176.23 11.2775 159.443 23.2521C155.668 25.9521 152.419 28.7895 149.619 31.6019L147.681 33.5394L145.744 31.6019C142.956 28.7895 139.706 25.9521 135.919 23.2521C119.132 11.265 101.195 8.80253 90.5578 8.36504C88.1453 6.51509 85.7329 4.65264 83.3329 2.80269C104.27 2.07771 123.557 7.60256 139.131 18.8023C142.106 20.9397 144.969 23.3021 147.694 25.8396C150.406 23.2896 153.281 20.9272 156.243 18.8023C171.818 7.60256 191.118 2.07771 212.042 2.80269Z" fill="#0072FF"/>
<path d="M116.045 60.7635H108.77V73.0257H116.045V60.7635Z" fill="#0072FF"/>
<path d="M187.23 60.7635H179.955V73.0257H187.23V60.7635Z" fill="#0072FF"/>
<path d="M242.779 0V26.5893H256.391V32.7766H242.779V78.8378C242.779 84.7502 244.291 86.6751 248.691 86.6751C250.341 86.6751 252.541 86.4001 256.391 85.4377V91.625C253.091 92.5875 249.791 93.1375 247.178 93.1375C239.754 93.1375 235.629 89.0126 235.629 81.5878V32.7766H224.079V26.5893H235.629V5.63735L242.779 0Z" fill="black"/>
<path fill-rule="evenodd" clip-rule="evenodd" d="M290.452 56.084V65.0429H295.815V69.3557H290.452V86.5662C290.452 87.7119 290.612 88.2018 290.775 88.4161C290.877 88.5505 291.09 88.7166 291.844 88.7166C292.385 88.7166 293.168 88.6276 294.65 88.257L295.815 87.9658V92.3074L295.14 92.5042C293.782 92.9002 292.391 93.1376 291.248 93.1376C289.615 93.1376 288.209 92.6815 287.213 91.6848C286.216 90.6881 285.76 89.2819 285.76 87.6496V69.3557H281.209V65.0429H285.76V59.7834L290.452 56.084Z" fill="black"/>
<path d="M269.425 88.8249V69.9515H264.929V65.6388H274.117V88.8249H278.505V93.1376H264.929V88.8249H269.425Z" fill="black"/>
<path d="M274.117 56.084H269.458L269.457 61.4229H274.116L274.117 56.084Z" fill="#0072FF"/>
<path d="M257.785 0H295.815V16.0124H257.785V0Z" fill="#0072FF"/>
<path d="M261.816 3.00233V4.15123H262.965V11.3668H261.788V12.5157H264.268V11.521H264.296C264.759 12.1795 265.669 12.6278 266.664 12.6278C268.528 12.6278 269.901 11.1567 269.901 9.1391C269.901 7.13555 268.556 5.70643 266.678 5.70643C265.711 5.70643 264.997 6.0427 264.268 6.82731V3.00233H261.816ZM266.398 6.89736C267.407 6.89736 268.5 7.58389 268.5 9.11108C268.5 10.4841 267.603 11.4789 266.384 11.4789C265.179 11.4789 264.31 10.5122 264.31 9.22317C264.31 7.90615 265.137 6.89736 266.398 6.89736Z" fill="white"/>
<path d="M271.381 9.20916C271.381 11.2547 272.922 12.7119 275.065 12.7119C276.495 12.7119 277.686 12.0814 278.386 10.9885L277.237 10.4841C276.719 11.1987 275.934 11.563 275.094 11.563C273.706 11.563 273.006 10.6803 272.824 9.53141H278.386C278.386 7.10752 276.691 5.70643 274.855 5.70643C273.146 5.70643 271.381 7.06549 271.381 9.20916ZM274.869 6.75725C275.976 6.75725 276.859 7.58389 277.055 8.57867H272.866C273.062 7.49983 273.805 6.75725 274.869 6.75725Z" fill="white"/>
<path d="M280.563 4.87979V5.90259H279.708V7.05148H280.563V11.1006C280.563 12.0954 281.11 12.6278 282.132 12.6278C282.329 12.6278 282.637 12.5858 283.099 12.4457V11.2688C282.791 11.3668 282.595 11.4089 282.413 11.4089C282.062 11.4089 281.88 11.2267 281.88 10.9045V7.05148H283.099V5.90259H281.88V3.68887L280.563 4.87979Z" fill="white"/>
<path d="M284.597 7.24763L285.844 7.58389C286.096 7.14956 286.53 6.79928 287.259 6.79928C288.352 6.79928 288.73 7.42977 288.73 8.03224V8.94295C288.156 8.60669 287.595 8.38252 286.923 8.38252C285.564 8.38252 284.513 9.32125 284.513 10.5262C284.513 11.6891 285.48 12.6278 286.755 12.6278C287.483 12.6278 288.142 12.3336 288.884 11.7031V12.5157H291.182V11.3668H290.047V7.69598C290.047 6.88335 289.571 5.70643 287.455 5.70643C286.124 5.70643 285.171 6.21083 284.597 7.24763ZM287.007 9.3913C287.651 9.3913 288.24 9.65751 288.73 10.0498V10.8344C288.24 11.2828 287.581 11.619 286.951 11.619C286.236 11.619 285.76 11.1567 285.76 10.5262C285.76 9.89569 286.25 9.3913 287.007 9.3913Z" fill="white"/>
</svg>
